<mxfile host="65bd71144e">
    <diagram id="cv8rSL4CBjLY9qG-ONGb" name="Page-1">
        <mxGraphModel dx="2520" dy="1509" grid="1" gridSize="10" guides="1" tooltips="1" connect="1" arrows="1" fold="1" page="1" pageScale="1" pageWidth="850" pageHeight="1100" math="0" shadow="0">
            <root>
                <mxCell id="0"/>
                <mxCell id="1" parent="0"/>
                <mxCell id="14" style="edgeStyle=none;html=1;entryX=0.5;entryY=0;entryDx=0;entryDy=0;fontStyle=0" edge="1" parent="1" source="11" target="13">
                    <mxGeometry relative="1" as="geometry"/>
                </mxCell>
                <mxCell id="11" value="INICIO" style="ellipse;whiteSpace=wrap;html=1;fontStyle=1;fillColor=#647687;fontColor=#ffffff;strokeColor=#314354;" vertex="1" parent="1">
                    <mxGeometry x="305" y="66" width="120" height="40" as="geometry"/>
                </mxCell>
                <mxCell id="20" style="edgeStyle=none;html=1;entryX=0;entryY=0;entryDx=64;entryDy=0;entryPerimeter=0;fontColor=#FFFFFF;" edge="1" parent="1" source="13" target="19">
                    <mxGeometry relative="1" as="geometry"/>
                </mxCell>
                <mxCell id="13" value="NUMERO1, NUMERO2,&lt;br&gt;RESULTADO : INTEIRO" style="shape=internalStorage;whiteSpace=wrap;html=1;backgroundOutline=1;fontStyle=0;fillColor=#ffe6cc;strokeColor=#d79b00;fontColor=#000000;" vertex="1" parent="1">
                    <mxGeometry x="250" y="176" width="230" height="100" as="geometry"/>
                </mxCell>
                <mxCell id="19" value="&lt;font color=&quot;#ffffff&quot;&gt;&quot;Escreva o primeiro número&quot;&lt;/font&gt;" style="shape=display;whiteSpace=wrap;html=1;fontColor=#ffffff;fillColor=#0050ef;strokeColor=#001DBC;" vertex="1" parent="1">
                    <mxGeometry x="301" y="346" width="128" height="64" as="geometry"/>
                </mxCell>
                <mxCell id="21" value="NUMERO1" style="shape=manualInput;whiteSpace=wrap;html=1;fontColor=#ffffff;fillColor=#0050ef;strokeColor=#001DBC;" vertex="1" parent="1">
                    <mxGeometry x="420" y="436" width="180" height="80" as="geometry"/>
                </mxCell>
                <mxCell id="22" value="" style="curved=1;endArrow=classic;html=1;fontColor=#FFFFFF;exitX=0;exitY=0;exitDx=64;exitDy=64;exitPerimeter=0;entryX=0.449;entryY=0.173;entryDx=0;entryDy=0;entryPerimeter=0;fillColor=#0050ef;strokeColor=#FFFFFF;" edge="1" parent="1" source="19" target="21">
                    <mxGeometry width="50" height="50" relative="1" as="geometry">
                        <mxPoint x="460" y="436" as="sourcePoint"/>
                        <mxPoint x="500" y="446" as="targetPoint"/>
                        <Array as="points">
                            <mxPoint x="400" y="446"/>
                            <mxPoint x="470" y="416"/>
                        </Array>
                    </mxGeometry>
                </mxCell>
                <mxCell id="26" value="" style="curved=1;endArrow=classic;html=1;fontColor=#FFFFFF;exitX=0.5;exitY=1;exitDx=0;exitDy=0;entryX=0;entryY=0;entryDx=64;entryDy=0;entryPerimeter=0;fillColor=#0050ef;strokeColor=#FFFFFF;" edge="1" parent="1" source="21" target="28">
                    <mxGeometry width="50" height="50" relative="1" as="geometry">
                        <mxPoint x="450" y="596" as="sourcePoint"/>
                        <mxPoint x="370.84000000000015" y="586.52" as="targetPoint"/>
                        <Array as="points">
                            <mxPoint x="490" y="566"/>
                            <mxPoint x="420" y="526"/>
                        </Array>
                    </mxGeometry>
                </mxCell>
                <mxCell id="28" value="&lt;font color=&quot;#ffffff&quot;&gt;&quot;Escreva o sugundo número&quot;&lt;/font&gt;" style="shape=display;whiteSpace=wrap;html=1;fontColor=#ffffff;fillColor=#0050ef;strokeColor=#001DBC;" vertex="1" parent="1">
                    <mxGeometry x="297" y="576" width="128" height="64" as="geometry"/>
                </mxCell>
                <mxCell id="32" style="edgeStyle=none;html=1;entryX=0.5;entryY=0;entryDx=0;entryDy=0;fontColor=#FFFFFF;" edge="1" parent="1" source="29" target="31">
                    <mxGeometry relative="1" as="geometry"/>
                </mxCell>
                <mxCell id="29" value="NUMERO2" style="shape=manualInput;whiteSpace=wrap;html=1;fontColor=#ffffff;fillColor=#0050ef;strokeColor=#001DBC;" vertex="1" parent="1">
                    <mxGeometry x="410" y="686" width="180" height="80" as="geometry"/>
                </mxCell>
                <mxCell id="30" value="" style="curved=1;endArrow=classic;html=1;fontColor=#FFFFFF;entryX=0.5;entryY=0;entryDx=0;entryDy=0;fillColor=#0050ef;strokeColor=#FFFFFF;" edge="1" parent="1" source="28" target="29">
                    <mxGeometry width="50" height="50" relative="1" as="geometry">
                        <mxPoint x="361" y="626" as="sourcePoint"/>
                        <mxPoint x="390" y="686" as="targetPoint"/>
                        <Array as="points">
                            <mxPoint x="390" y="676"/>
                            <mxPoint x="430" y="686"/>
                            <mxPoint x="470" y="676"/>
                        </Array>
                    </mxGeometry>
                </mxCell>
                <mxCell id="35" style="edgeStyle=none;html=1;entryX=0;entryY=0;entryDx=60;entryDy=0;entryPerimeter=0;fontColor=#FFFFFF;" edge="1" parent="1" source="31" target="34">
                    <mxGeometry relative="1" as="geometry"/>
                </mxCell>
                <mxCell id="31" value="SOMAR &amp;lt;- NUMERO1 + NUMERO2" style="rounded=0;whiteSpace=wrap;html=1;fontColor=#ffffff;fillColor=#a20025;strokeColor=#6F0000;" vertex="1" parent="1">
                    <mxGeometry x="420" y="826" width="160" height="80" as="geometry"/>
                </mxCell>
                <mxCell id="33" value="FIM" style="ellipse;whiteSpace=wrap;html=1;fillColor=#647687;strokeColor=#314354;fontColor=#ffffff;" vertex="1" parent="1">
                    <mxGeometry x="181" y="980.5" width="120" height="40" as="geometry"/>
                </mxCell>
                <mxCell id="36" style="edgeStyle=none;html=1;entryX=1;entryY=0.5;entryDx=0;entryDy=0;fontColor=#FFFFFF;" edge="1" parent="1" source="34" target="33">
                    <mxGeometry relative="1" as="geometry"/>
                </mxCell>
                <mxCell id="34" value="&quot;O resultado&amp;nbsp; da operação é: RESULTADO" style="shape=display;whiteSpace=wrap;html=1;fontColor=#ffffff;fillColor=#6d8764;strokeColor=#3A5431;" vertex="1" parent="1">
                    <mxGeometry x="440" y="968" width="130" height="65" as="geometry"/>
                </mxCell>
                <mxCell id="39" value="Um comentário&lt;br style=&quot;font-size: 14px;&quot;&gt;Bacana" style="text;html=1;align=left;verticalAlign=middle;resizable=0;points=[];autosize=1;strokeColor=none;fillColor=none;fontColor=#FFFFFF;fontSize=14;" vertex="1" parent="1">
                    <mxGeometry x="520" y="201" width="120" height="50" as="geometry"/>
                </mxCell>
                <mxCell id="40" value="" style="shape=curlyBracket;whiteSpace=wrap;html=1;rounded=1;flipH=1;labelPosition=right;verticalLabelPosition=middle;align=left;verticalAlign=middle;fontSize=14;fontColor=#FFFFFF;" vertex="1" parent="1">
                    <mxGeometry x="495" y="166" width="20" height="120" as="geometry"/>
                </mxCell>
            </root>
        </mxGraphModel>
    </diagram>
</mxfile>